<?xml version="1.0" encoding="UTF-8"?>
<svg id="OBJECTS" xmlns="http://www.w3.org/2000/svg" viewBox="0 0 291.38 399.51">
  <defs>
    <style>
      .cls-1 {
        font-family: OpenSans-Regular, 'Open Sans';
        font-size: 18.35px;
        letter-spacing: .16em;
      }

      .cls-1, .cls-2, .cls-3 {
        fill: #000005;
      }

      .cls-2, .cls-4, .cls-5, .cls-6, .cls-7, .cls-8, .cls-9, .cls-10, .cls-11, .cls-12, .cls-13, .cls-14, .cls-15, .cls-16, .cls-17, .cls-18, .cls-19, .cls-20 {
        fill-rule: evenodd;
      }

      .cls-21, .cls-4 {
        fill: #20201e;
      }

      .cls-21, .cls-22 {
        letter-spacing: -.08em;
      }

      .cls-3 {
        letter-spacing: -.08em;
      }

      .cls-5 {
        fill: #d98b58;
      }

      .cls-6 {
        fill: #fff;
      }

      .cls-23 {
        font-family: OpenSansCondensed-ExtraBold, 'Open Sans Condensed';
        font-size: 54.09px;
        font-weight: 700;
      }

      .cls-7 {
        fill: #911b19;
      }

      .cls-8 {
        fill: #121212;
      }

      .cls-9 {
        fill: #000004;
      }

      .cls-10 {
        fill: #000508;
      }

      .cls-11 {
        fill: #c4c4c4;
      }

      .cls-12 {
        fill: #171717;
      }

      .cls-13 {
        fill: #020307;
      }

      .cls-14, .cls-24 {
        fill: #dc9118;
      }

      .cls-22, .cls-15 {
        fill: #c10016;
      }

      .cls-16 {
        fill: #000006;
      }

      .cls-17 {
        fill: #afb0b0;
      }

      .cls-18 {
        fill: #242626;
      }

      .cls-19 {
        fill: #edcbaa;
      }

      .cls-20 {
        fill: #000003;
      }
    </style>
  </defs>
  <text class="cls-23" transform="translate(33.32 373.03)"><tspan class="cls-22" x="0" y="0">CRUCIAL</tspan><tspan class="cls-21" x="155.61" y="0"> </tspan><tspan class="cls-3" x="160.79" y="0">CHEF</tspan></text>
  <text class="cls-1" transform="translate(56.37 394.1)"><tspan x="0" y="0">Plan,Cook,Conquer</tspan></text>
  <g>
    <circle class="cls-24" cx="172.8" cy="189.01" r="118.58" transform="translate(-83.04 177.55) rotate(-45)"/>
    <g>
      <g>
        <g>
          <path class="cls-2" d="m144.6,64.31c-3.94-2.72-7.57-5.62-10.61-9.21-4.78-5.66-7.58-12.01-7.07-19.61.73-10.92,10.65-20.73,21.21-20.28,3.19.14,4.75-.7,6.65-3.12,4.58-5.83,11.1-8.82,18.17-10.54,10.19-2.48,20.23-2.2,29.91,2.23,6.96,3.18,11.99,8.26,14.67,15.51.36.96.61,1.42,1.85,1.03,13.18-4.09,27.62,4.73,30.15,18.36,1.08,5.79.32,11.36-2.23,16.65-.7,1.44-.66,2.07.75,3.24,3.66,3.01,5.59,7.14,5.96,11.9.62,8.07-1.84,15-8.26,20.08-5.97,4.73-12.66,4.42-19.43,1.85-1.17-.45-2.26-1.09-3.41-1.61-.38-.17-.81-.75-1.23-.11-.52.79-1.2,1.5-1.39,2.46-.02.08.46.34.73.4,5.87,1.3,8.88,7.86,6.43,14.29-1.5,3.94-4.39,6.67-7.92,8.79-2.21,1.33-4.6,2.3-7.07,3.06-1.47.45-2.91.77-4.41.26-.88-.3-1.27-.08-1.4.91-.29,2.26-.66,4.51-1.07,6.75-.15.84.1,1.12.91,1.35,2.07.58,4.09,1.35,6.17,1.93,1.4.39,2.03,1.21,2.27,2.64.62,3.72,1.42,7.42,2.04,11.15.17,1.02.62,1.36,1.54,1.62,10.68,2.97,21.33,6.03,32.03,8.94,2.28.62,3.8,1.8,4.87,3.85,1.83,3.52,3.16,7.24,4.55,10.93,3.17,8.4,5.95,16.96,10.07,24.97.79,1.54,1.7,3.03,2.67,4.47.7,1.04,1.54,1.96,2.76,2.5,4.26,1.88,6.98,4.89,6.73,9.82-.27,5.19,1.28,9.87,3.54,14.44,1.22,2.46,1.97,5.14,3.02,7.69,3.44,8.35,1.78,16.27-2.2,23.87-4.26,8.12-11.08,13.75-18.82,18.38-6.61,3.96-13.65,6.96-20.98,9.29-1.3.41-2.08,1.04-2.22,2.39-.01.12-.04.24-.07.35-1.97,7.12-2.02,7.15-9.2,8.84-4.43,1.04-8.85,2.16-13.3,3.15-4.96,1.11-.24,15.37-2.21,17.82-.31.39-2.66-10.92-3.31-10.68-12.55,4.45-25.25,9.31-39.33,9.31-20.73,0-40.24-5.26-57.26-14.51-.43-.24-.66,3.38-1.09,3.14-.34-.19-.89-4.24-1.23-4.44-5.24-3-10.23-6.38-14.93-10.11-.79-.63-3.87,7.66-4.65,7.01,1.24-11.76,3.96-22.46,5.67-34.08.32-2.18.21-4.35-.21-6.45-1.2-5.94-.17-11.7.96-17.49.34-1.76.65-3.53,1.05-5.74-2.89,3.12-5.37,6.03-8.08,8.71-7.49,7.4-16.12,13.18-25.65,17.64-4.48,2.1-8.57,1.53-12.43-1.55-7.49-5.96-13.41-13.17-17.64-21.76-2.1-4.26-1.67-8.62-.67-13.02,1.18-5.23,3.12-10.18,5.41-15,.38-.81.35-1.32-.15-2.08-1.83-2.75-3.45-5.61-4.1-8.92-.35-1.8-.07-3.43.72-5.05,1.72-3.52,4.01-6.67,6.27-9.85.38-.53.76-1.06,1.21-1.7-4.59-.79-9.06-1.47-13.49-2.34-9.38-1.84-18.58-4.25-27.03-8.9-2.91-1.6-5.64-3.45-7.73-6.08-2.94-3.68-2.75-7.46.59-10.78,3.29-3.27,7.5-4.88,11.78-6.31,3.81-1.28,7.73-2.17,11.7-2.81.98-.16,1.43-.57,1.81-1.4,2.15-4.62,4.63-9.06,7.02-13.56,2.08-3.92,5.24-6.48,9.16-8.27,7.56-3.45,15.6-5.03,23.77-6.07,2.5-.32,5.01-.5,7.53-.66.83-.05,1.06-.27,1.12-1.14.35-5.37,4.19-8.83,9.19-8.37,4.69.43,7.95,4.68,7.33,9.73-.15,1.24.32,1.48,1.35,1.7,7.59,1.65,14.87,4.15,21.62,8.06,3.08,1.78,5.89,3.91,8.55,6.27,3.44,3.06,5.52,6.88,6.66,11.28.32,1.22.79,2.39,1.07,3.62.18.82.59.93,1.28.78,2.75-.6,5.51-1.19,8.26-1.79.58-.13,1.08-.36.79-1.09-.49-1.21.3-1.71,1.14-2.28,1.68-1.15,3.31-2.38,4.99-3.55.63-.44.74-.79.38-1.59-4.8-10.76-7.52-22.11-9.14-33.72-.61-4.35.71-8.58,1.49-12.82.19-1.04.18-1.99-.1-3-.88-3.24-1.6-6.51-2.32-9.79-.97-4.41.52-7.74,3.73-10.57.58-.51,1.13-1.06,1.78-1.67Z"/>
          <path class="cls-6" d="m161.99,182.25c2.56,4.6,5.28,8.88,8.93,12.48,2.43,2.41,5.2,4.2,8.51,5.18,5.41,1.6,8.92,3.95,14.21,5.88.73.27.96.68,1.05,1.42.59,4.76.61,4.75-4.02,6.22-3.99,1.27-6.33,2.65-10.35,3.83-2.23.66-3.28,2.16-3.55,4.26-.35,2.69,0,5.31,1.87,7.45.5.58.38.98.21,1.58-.95,3.27-.45,6.2,2.3,8.44.6.49.58.89.45,1.52-.42,2.04.06,3.82,1.78,5.12.65.5,1,.98.62,1.81-.1.21-.06.47-.08.71-.58,6.59.52,8.27,6.84,10.05,1.78.5,3.62.84,5.45,1.15,1.83.31,3.49.04,4.44-1.86.12-.25.27-.59.63-.57,2.24.15,4.38-.59,6.6-.69,1.33-.06,1.2.89,1.27,1.7-1.37,10.17,1.19,18.99.91,25.1-.38,8.58-6.67,13.08-8.38,21.52-.08.42,7.85-11.59,9.93-10.6,2.31,1.1,5.01,11.43,4.9,11.89-.46,1.91-2.4,3.92-5.01,5.83-10.88,3.25-22.41,4.99-34.34,4.99-20.83,0-40.43-5.31-57.5-14.65.4-8.3.8-16.59,1.25-24.88.33-6.18,1.48-12.27,2.28-18.39,1.69-12.91,3.48-25.81,5.22-38.71.85-6.3,1.73-12.6,2.51-18.91.16-1.27.85-1.19,1.72-1.18,5.59.02,11-.79,15.89-3.75,5.09-3.08,8.94-7.4,12.3-12.22.37-.53.74-1.06,1.19-1.72Z"/>
          <path class="cls-6" d="m247.98,158.95c-6.61,6.44-9.24,10.02-10.37,14.43,1.03-1.36,1.76-2.32,2.49-3.29,2.56-3.42,5.21-6.75,8.65-9.36,1.96-1.48,2.08-1.48,3.19.79,2.22,4.53,3.82,9.3,5.58,14.01,3.12,8.35,5.98,16.81,10.51,24.58-2.28-.88-3.66-2.54-8.78-10.36.85,3.69,2.57,6.92,5.12,9.76,2.55,2.84,5.89,4.52,9.2,6.17,2.9,1.45,4.66,3.25,4.52,6.78-.12,2.85.01,5.79.74,8.59,1.55,5.93,1.56,12.22,4.19,17.89.17.36.12.82.2,1.36.62-2.05.25-3.96-.14-5.87-.38-1.87-.79-3.73-.85-5.71.62,1.6,1.48,3.14,1.82,4.79.79,3.82,1.12,7.72,1.09,11.63-.05,5.91-2.69,10.75-6.6,14.95-6.81,7.32-14.91,12.57-24.68,15.05-2.52.64-2.91.84-5.5.3-1.32-.28-1.87-.76-1.79-2.24.49-9.18-1.58-18.35-2.41-27.52-.45-5.02-1.9-9.74-3.9-14.33-.23-.54-.45-1.09-.72-1.74,4.7-.2,9.15-1.19,13.63-1.98,8.04-1.42,14.87,1.25,21.08,6.1.23.18.45.37,1.03.86-.72-1.81-1.66-2.91-2.77-3.9-1.73-1.54-3.75-2.58-5.84-3.49-.79-.34-1.3-.75-1.35-1.68-.12-2.16,1.92-4.66,4.02-5.01,1.65-.28,3.31-.23,5.42-.24-1.38-1.12-2.63-1.02-3.78-1.07-4.14-.19-7.82,1.34-11.55,2.93-5.47,2.32-11.16,2.55-16.83.6-2.55-.88-4.23-2.86-5.71-5.02-7.91-11.55-8.8-23.77-3.52-36.59.12-.28.23-.55.36-.82.15-.31.46-.66.04-.93-.48-.31-.59.23-.76.47-4.56,6.41-7.92,13.38-9.72,21.07-.21.92-.38,1.84-.65,2.74-.07-4.94-.41-9.91,1.77-14.71-1.45.77-2.04,2.01-2.3,4.32-.19,1.64-.24,3.32-.91,5.06-.27-2.41-.51-4.62-.76-6.84-1.15,5.61-1.43,11.22-1.13,16.83.22,4.05-.14,6.08-2.48,9.4-.77-.69-1.2-1.59-1.65-2.47-1.85-3.56-3.18-5.89-4.84-9.54-1.58-3.47-2.99-6.81-2.17-10.53.34-1.53,1.04-3.47-.47-4.55-1.58-1.14-3.35,0-4.88.78-3.2,1.63-5.23,4.26-6.14,8.12-1.14-4.09-2.15-7.84-3.64-11.44-1.33-3.22-2.89-6.31-4.97-9.13-1.68-2.27-.65-7.95,1.76-9.86,2.31-1.83,4.9-3.25,7.43-4.74,5.11-3.01,10.34-5.84,15.09-9.43,1.53-1.16,3.05-2.35,4.04-4.05.28-.47.56-.66,1.15-.5,10.12,2.87,20.25,5.72,30.44,8.59Z"/>
          <path class="cls-19" d="m200,120.24c-6.11,5.24-12.07,10.65-18.56,15.4-1.98,1.45-4.08,2.74-6.13,4.1-6.21,4.16-16.66,2.26-21.68-2.79-1.61-1.62-2.35-3.76-3.12-5.82-3.4-9.12-5.81-18.52-7.26-28.15-.54-3.62.19-7.17.93-10.71,1.38-6.58,1.85-13.29,2.6-19.95.21-1.9.71-3.77.97-5.67.15-1.07.75-1.62,1.71-1.8,15.16-2.7,30.08-2.67,44.44,3.86,3.67,1.67,7.09,3.75,10.38,6.07.94.67,1.07,1.27.85,2.35-1.69,8.36-2.03,16.78-.68,25.22.41,2.55.9,2.61,2.86.95,2.22-1.87,3.82-4.31,5.93-6.28.61-.57,1.27-1.1,1.91-1.64.57-.49,1.01-.7,1.41.25.28.66.98.85,1.68.8,4.63-.34,8.1,4.13,6.47,9.54-.87,2.9-2.77,5.01-5.1,6.78-2.71,2.06-5.83,3.3-9.08,4.19-1.42.39-2.69-.25-3.89-.99-1.58-.98-2.76-.43-2.84,1.4-.22,5.48-1.72,10.77-2.37,16.19-.26,2.19-.85,4.35-.39,6.59.12.61-.42.96-.74,1.36-2.78,3.43-6.14,6.23-9.81,8.77,3.37-6.25,5.42-12.97,7.34-19.75-.96.94-1.22,2.23-1.67,3.4-2.15,5.52-4.12,11.12-7.39,16.14-1.4,2.15-3.06,3.96-5.32,5.23-1.99,1.11-3.94,2.29-5.81,3.59-2.95,2.05-6.28,2.47-9.86,2.69.22-1.6.95-3.04.54-4.72-1.1.65-1.12,1.89-1.71,2.76-.4.59-.08,1.81-1.16,1.76-1.12-.05-2.51-.19-3.05-1.25-1.95-3.8-4.62-7.34-4.5-11.99.62-.11.92.42,1.31.69,2.63,1.86,5.48,3.2,8.66,3.78,2.23.41,4.24.05,6.07-1.45,10.6-8.7,19.05-19.19,26.05-30.93Z"/>
          <g>
            <path class="cls-6" d="m150.43,86.2c1.22,2.37.88,2.5,2.7,3.04,1.83.54,9.06-.07,9.06-.07,0,0,1.29-.74,1.15-1.22-.14-.47-1.96-3.65-1.96-3.65l-8.65-.2s-.61.68-2.3,2.1Z"/>
            <path class="cls-6" d="m179.09,88.03c1.01,1.96,3.72,3.18,3.72,3.18l8.49.06,3.41-1.95s-2.91-2.77-4.46-3.38c-1.56-.61-7.91-.88-8.72-.74-.81.13-2.43,2.84-2.43,2.84Z"/>
          </g>
          <path class="cls-6" d="m243.99,75.85c-3.87,1.87-6.82.56-9.33-2.22-3.74-4.15-5.69-9.25-7.48-14.42-1.08-3.12-1.87-6.31-2.61-9.74-.93,1.28-1.54,2.59-2.63,3.54-1.66,1.44-3.23,1.34-4.68-.32-1.83-2.09-1.64-4.5-1.2-6.99.54-2.97.29-3.23-2.63-2.62-4.73.98-9.25-.01-13.86-1.04-10.09-2.25-14.7-9.1-16.39-18.62-.21-1.16-.4-2.32-.66-3.88-2.85,4.83-5.05,9.5-6.91,14.35-.75,1.96-1.93,3.53-3.56,4.86-2.13,1.74-4.69.91-7.39,1.61,3.08-3.56,4.2-7.55,5.27-11.7-.99.13-1.04.85-1.24,1.34-2.41,6.01-7.09,9.57-13.08,11.07-3.47.87-6.98-.49-9.91-2.73-1.98-1.51-3.4-3.54-4.81-5.56-.37-.53-.73-1.06-1.19-1.74-.09,3.07,2.9,8.35,6.58,11.86-3.54.24-6.99-1.97-9.69-6.4-3.99,9.08.45,15.65,6.14,22.23-9.39-6.68-14.85-16.92-11.83-26.87,2.33-7.69,9.95-13.74,17.37-13.6.3,0,.6.01.9.04q2.52.25,2.3,2.73c-.43,4.72-.1,6.67,1.52,8.93.37-.01.32-.31.29-.51-1.36-9,2.08-15.84,9.79-20.29,12.48-7.2,25.58-8.14,38.82-2.32,7.13,3.13,11.8,8.71,13.52,16.47.57,2.55.34,5.14.14,7.71-.03.41-.25.95.25,1.11.74.23.68-.56.79-.92.5-1.66.99-3.35.93-5.11-.04-1.34.58-2,1.83-2.44,7.65-2.71,14.48-1.04,20.4,4.18,8.57,7.55,8.97,18.57,3.72,28.23-.42.77-.93.76-1.61.75-2.22-.03-4.34.39-6.75,1.52,1.77.55,3.2.49,4.55.43,3.7-.14,6.3,1.69,8.38,4.42,6.76,8.87,1.57,24.32-9.15,27.35-.6.17-1.23.23-1.94.21,6.21-3.11,8.11-8.19,7.05-14.91Z"/>
          <path class="cls-17" d="m95.43,155.61c-28.23-.41-36.83-1.63-62.17-10.81-1.12-.4-1.13-.81-.69-1.77,2.09-4.58,3.33-7.55,5.81-11.93,1.9-3.35,4.86-5.4,8.22-6.97,6.99-3.26,14.46-4.66,22.04-5.56,14.38-1.71,28.07.89,41.16,6.87,2.01.92,3.85,2.21,5.83,3.18,10.5,5.13,10.54,15.71,9.76,23.73-.11,1.16-.83,1.4-1.83,1.5-3.04.3-6.07.77-9.12,1.01-6.4.52-12.82.69-19.02.75Z"/>
          <path class="cls-6" d="m51.61,186.89c2.83,4.73,7.1,7.19,11.89,9.59-.36-1.05-.96-1.42-1.46-1.86-2.19-1.87-4.4-3.72-6.58-5.6-.4-.35-.74-.79-1.07-1.21-2.14-2.73-1.12-5.29,2.31-5.85.41-.07.83-.14,1.65-.29-1.95,2.58-.07,3.94,1.42,5.37,4.86,4.66,10.13,8.81,15.8,12.46,3.07,1.98,6.09,2.32,9.53.93,4.79-1.93,9.44-4.09,13.91-6.67.51-.29,1.01-.6,1.72-1.02-.13,5.42-.18,10.61-1.15,15.74-.19,1-.86,1.55-1.69,1.62-4.04.34-7.58,2.11-11.21,3.67-1.64.71-3.27,1.45-4.88,2.26,3.22-.34,6.3-1.26,9.36-2.25,1.32-.43,3-1.7,3.94-.86.75.66-.3,2.55-.65,3.86-.68,2.6-1.46,5.18-2.25,7.75-.96,3.11-2.79,5.67-5.09,7.94-3.51,3.46-6.91,7.02-10.97,9.85-.69.48-1.34,1.06-.68,1.9.66.85,1.4.26,2.04-.19,4.24-3,7.86-6.69,11.46-10.38.46-.47.9-.96,1.45-1.38-1.26,3.52-3.9,6.22-5.77,9.41,1.8-.71,3.01-2.08,4.14-3.5,2.61-3.29,4.28-7.04,5.27-11.12,1.07-4.42,2.25-8.82,3.29-13.25.26-1.09,1.1-1.43,1.85-1.78,1.66-.77,2.36-2.05,2.63-3.77.72-4.52.9-9.07,1.01-13.63.02-.72.04-1.44.11-2.15.23-2.25-.02-4.22-2.59-5.05-.74-.24-.85-1.09-1.28-1.47,3.1-2.48,6.73-2.24,10.35-2.11-.6,6.17-1.06,12.35-1.82,18.52-1.74,14.21-8.29,25.98-17.53,36.53-4.27,4.88-8.93,9.26-14.98,11.83-4.84,2.06-9.88,2.91-15.1,1.53-1.89-.5-3.5-1.42-4.84-2.93-3.59-4.06-6.8-8.37-9.35-13.18-2.04-3.84-1.64-7.77-.67-11.74.76-3.08,1.78-6.09,3.02-9.01.2-.47.16-1.25,1.17-.81,3.32,1.45,6.86,1.73,10.41,1.61,4.39-.15,8.74.61,13.12.43.54-.02,1.41.28,1.5-.54.1-.92-.87-.67-1.36-.73-5.34-.6-10.52-1.69-15.36-4.16-5.15-2.63-8.72-6.61-10.85-11.97-.77-1.93-.81-3.65.3-5.47,1.4-2.29,2.82-4.56,4.52-6.87Z"/>
          <path class="cls-11" d="m90.75,198.02c2.82-1.29,5.58-2.69,8.27-4.25.51-.29,1.01-.6,1.72-1.02-.13,5.42-.18,10.61-1.15,15.74-.19,1-.86,1.55-1.69,1.62-4.04.34-7.58,2.11-11.21,3.67-.58.25-1.16.5-1.73.76,2.83-2,5.78-5.07,5.78-5.07v-11.44h0Zm-8.28,17.93c-.43.17-.84.26-1.19.26-2.98,0,8.38.54,8.38.54l-8.9,21.86c2.19-1.97,4.25-4.08,6.35-6.15,2.3-2.27,4.13-4.83,5.09-7.94.79-2.57,1.57-5.15,2.25-7.75.34-1.31,1.39-3.2.65-3.86-.94-.83-2.62.43-3.94.86-2.86.93-5.72,1.78-8.71,2.18h0Zm-6.5,28.65l-7.41,8.05c2.22-.35,4.4-1.02,6.54-1.93,6.05-2.57,10.71-6.95,14.98-11.83,9.24-10.55,15.79-22.32,17.53-36.53.76-6.16,1.22-12.34,1.82-18.52-3.62-.13-7.25-.36-10.35,2.11.44.38.54,1.23,1.28,1.47,2.57.83,2.83,2.79,2.59,5.05-.07.71-.1,1.43-.11,2.15-.11,4.56-.29,9.11-1.01,13.63-.27,1.72-.97,3-2.63,3.77-.75.35-1.59.69-1.85,1.78-1.04,4.43-2.22,8.83-3.29,13.25-.99,4.08-2.66,7.82-5.27,11.12-1.13,1.42-2.34,2.79-4.14,3.5,1.88-3.19,4.51-5.89,5.77-9.41-.55.42-.99.91-1.45,1.38-3.61,3.7-7.22,7.39-11.46,10.38-.48.34-1.02.76-1.54.58Z"/>
          <path class="cls-6" d="m116.95,211.12c-2.34,4.25-3.97,8.55-6.47,12.42,3.26-13.24,1.14-26.42-.18-39.75,7.19-.44,14.59-.88,22.23-2.25-1.89,2.85-3.5,5.53-4.7,8.42-.66,1.6-1.33,3.21-2.07,4.78-.45.96-.87,2-2.09,2.31-.63.16-.83.66-.72,1.26.12.67.68.79,1.22.86,1.13.15,2.26.37,3.39.37,1.17,0,1.37.43,1.22,1.51-.83,5.88-1.61,11.77-2.4,17.65-1.74,12.96-3.52,25.92-5.21,38.89-.91,6.96-2.19,13.87-2.52,20.9-.35,7.46-.71,14.91-1.07,22.36-6.04-1.91-11.97-2.45-16.67-6.17,1.93-8.05,5.3-20.15,6.64-28.63,1.35,3.44,1.94,6.62,2.28,9.87.35,3.33-.36,6.51-1.23,9.7,1.83-2.82,2.81-5.89,2.9-9.24.13-4.64-1.11-9.02-2.48-13.38-2.02-6.41-2.49-12.89-1.06-19.5,1.18-5.45,2.21-10.92,3.27-16.4.13-.68.44-1.22.77-1.79,2.23-3.86,4.06-7.88,5-12.26.11-.52.37-1.02-.05-1.92Z"/>
          <path class="cls-6" d="m148.53,62.86c1.31-5.9,2.56-11.51,3.8-17.12.16-.73.53-1.02,1.28-1.22,28.09-7.58,56.39,1.96,72.98,27.44.37.57.6,1.02.25,1.77-1.86,4.01-3.65,8.07-5.53,12.27-1.55-2.2-2.94-4.32-4.49-6.32-1.55-2-3.56-3.5-5.83-4.73,2.95,3.3,5.91,6.58,7.8,10.65-2.6-2.84-5.15-5.71-8-8.31-11.8-10.74-25.77-15.84-41.61-16.18-6.86-.15-13.65.45-20.65,1.76Z"/>
          <path class="cls-17" d="m124.09,156.07c-1.27,2.88-3.26,5.08-5.61,6.97-5.54,4.45-12.04,7.1-18.52,9.77-.37.15-.82.14-1.24.14-18.58-.06-37.03-1.49-55.23-5.43-4.5-.97-8.96-2.18-13.1-4.3-.59-.3-1.16-.62-1.72-.97-2.94-1.88-3.11-2.31-1.97-5.51.95-2.65,1.97-5.27,2.94-7.91.26-.69.52-1.08,1.42-.73,15.91,6.14,32.57,8.33,49.46,9.15,14.1.68,28.19.72,42.22-1.16.4-.05.81,0,1.35,0Z"/>
          <path class="cls-17" d="m134.12,156.9c5.99,2.16,11.71,3.73,16.48,7.66.55.46,1.07.97,1.52,1.53,1.96,2.43,1.77,4.52-.63,6.57-1.94,1.66-4.23,2.69-6.61,3.56-7.5,2.72-15.33,3.82-23.22,4.62-8.73.88-17.49,1.14-26.25.94-23.63-.55-47.03-2.86-69.83-9.56-5.24-1.54-10.34-3.44-15.12-6.13-1.78-1-3.46-2.15-4.89-3.64-2.65-2.77-2.47-5.2.6-7.56,1.97-1.52,4.23-2.47,6.55-3.31,4.75-1.72,8.54-2.68,13.69-3.49-1.17,3.29-2.19,6.46-3.42,9.54-.74,1.86-.22,3.25,1.05,4.55,2.06,2.12,4.67,3.31,7.37,4.34,7.21,2.75,15.87,4.57,23.46,5.73,15.93,2.42,31.97,3.48,48.07,3.26,8.52-.12,17.03-.48,25.37-2.49,2.16-.52,4.28-1.19,6.11-2.53,1.54-1.13,2.23-2.46,1.67-4.5-.79-2.87-1.28-5.82-1.97-9.08Z"/>
          <path class="cls-5" d="m205.37,214.83c-1.42-1.51-3.28-2.04-5.19-2.38-.8-.14-1.26-.36-1.38-1.25-.48-3.71-.66-7.43,0-11.12.73-4.07,3.36-6.47,7.35-7.71.38,1.59-.13,3.03-.37,4.44-.45,2.63-.19,5.11.76,7.58,2.09,5.43,4.38,10.77,7.47,15.72,3.47,5.57,5.52,11.61,6.66,18.02.23,1.3.35,2.64.78,3.87.67,1.88-.03,3.18-1.26,4.49-1.54,1.64-2.95,3.4-5.01,4.71.17-.94,1.08-1.49.74-2.42-11.85,6.5-13.54,6.55-21.82,4.71-.09.67.73.67.89,1.29-2.06-.62-5.41-.52-6.75-2.12-.8-.96-.55-3.66-.02-4.96.65-1.59,5.84-2.18,7.66-2.39,2.03-.23,2.5-.75,2.15-2.68-3.78,1.15-7.65,2.42-11.54,2.11-1.16-.09-2.7-6.17-1.04-6.42,2.61-.4,6.59-1.68,9.07-2.58,2.07-.75,3.04-3.23-2.01-1.65-2.52.79-7.15,2.64-9.87,2.41-.98-.08-1.46-3.51-1.34-5,.09-1.12.81-1.4,1.58-1.65,2.91-.93,5.82-1.86,8.73-2.79,2-.63,5.1-5.12-.49-2.6-2.67,1.2-5.4,2.27-9.25,2.95-2.03-.28-2.61-3.64-2.68-5.51-.05-1.4.47-2.18,1.89-2.61,4.3-1.3,8.53-2.8,12.84-4.08,3.38-1,6.85-1.13,10.32-.28.33.08.65.35,1.12-.1Z"/>
          <path class="cls-6" d="m220.65,227.47c4.32,9.31,7.48,18.84,7.17,29.23.55-1.08.66-7.47.29-9.36-1.24-6.33-1.76-12.84-4.83-18.7-.22-.42-.28-.91-.41-1.38-.19-.71,0-.96.8-.85,4.03.55,8.1.91,11.95,2.39.89.34,1.47.86,1.9,1.72,3.3,6.61,4.74,13.64,4.98,20.98.35,10.75.3,21.48-1.25,32.14-.36,2.49-1.21,4.87-2.1,7.23-.25.67-.58,1.13-1.31,1.3-4.59,1.06-9.18,2.14-14.11,3.3,4.77-23.04,2.58-45.6-3.08-68.01Z"/>
          <path class="cls-15" d="m210.16,134.56c-1.17,2.6-2.81,4.81-4.35,7.09-1.54,2.29-3.37,4.35-5.25,6.37,4.38-3.09,7.49-7.32,10.53-12.19.51,2.79.9,5.07,1.36,7.34.18.86-.17,1.29-.83,1.75-4.13,2.88-8.48,5.44-12.44,8.57-1.58,1.25-3.17,2.5-4.67,3.88,6.38-3.12,12.42-6.82,18.41-10.67q.88,2.66-1.45,3.93c-11.22,6.07-22.45,12.1-33.65,18.21-2.54,1.39-5.03,2.5-7.89,1.06,4.59-3,9.91-4.75,14.64-7.64-3.73.93-7.32,2.23-10.77,3.91-1.67.81-3.34,1.6-4.99,2.46-.71.37-1.29.34-1.66-.37-.4-.79.49-.82.83-1.03,6.92-4.4,14.18-8.27,20.92-12.97,4.83-3.38,9.49-6.96,13.22-11.58,1.9-2.35,3.51-4.88,4.18-7.87.29-1.32.86-1.43,1.92-.93.58.28,1.23.43,1.94.67Z"/>
          <path class="cls-15" d="m194.8,201.34c-7.88-10.17-14.62-20.81-26.6-26.06,2.7-.45,5.23.42,11.13,3.85-1.32-2.15-5.49-4.47-9.15-5.09-.36-.06-.71-.11-1.07-.16-.55-.08-.83-.31-.74-.95.09-.69.51-.74,1.02-.67,7.24.96,13.87,3.13,18.09,9.66,3.72,5.76,5.63,12.25,7.32,19.43Z"/>
          <path class="cls-15" d="m145.35,145.49c2.31,3.09,3.75,6.66,6.1,9.7-1.11-2.46-2.22-4.93-3.35-7.39-.27-.6-.65-1.14-.95-1.73q-1.24-2.49.97-4.12c1.01-.74,2.02-1.48,3.22-2.36,2.83,9.82,7.32,18.75,12.35,27.45-1.06.58-1.58.22-2.25-.63-1.81-2.3-3.52-4.71-5.87-6.57,1.43,2.82,3.48,5.25,5.3,7.91-2.97-.31-15.67-18.63-15.52-22.27Z"/>
          <path class="cls-15" d="m189.76,198.19c-3.79-2.23-7.83-3.62-11.75-5.31-5.55-2.4-9.26-6.64-11.35-12.31-.12-.34-.28-.68-.33-1.02-.09-.74.12-1.51.6-2,.51-.52,1.1.1,1.6.32,5.81,2.64,10.26,6.98,14.36,11.71,2.4,2.77,4.59,5.74,6.87,8.62Z"/>
          <path class="cls-15" d="m129.43,196.26c9.44-6.94,18.07-14.83,29.69-18.15-1.66,2.49-3.74,4.46-5.66,6.56-1.21,1.33-2.63,2.48-3.8,3.84-4.49,5.22-10.69,6.52-17.02,7.5-.97.15-1.94.56-3.21.24Z"/>
          <path class="cls-19" d="m67.87,190.8c2.19,1.06,4.23.76,6.38-.16,2.27-.97,4.66-.26,6.84.53,2.73,1,5.37,1.07,8.04,0,.94-.38,1.28-.19,1.4.81.35,3.11-.1,3.92-2.99,5.14-7.07,2.99-7.61,2.95-13.9-1.51-1.99-1.41-3.92-2.91-5.88-4.37.04-.15.08-.31.12-.46Z"/>
          <path class="cls-15" d="m128.77,193.83c1.56-4.58,3.63-8.84,6.81-12.49.41-.47.93-.53,1.44-.64,3.75-.82,7.45-1.81,10.98-3.37.14-.06.33,0,.66,0-.7.6-1.28,1.09-1.86,1.59,3.46-1.48,6.96-2.67,10.82-2.81-11.08,3.53-19.63,11.12-28.85,17.73Z"/>
          <path class="cls-14" d="m224.11,215.13c2.83,4.18,6.92,6.9,10.12,10.89-4.33-1.09-8.42-1.5-12.52-1.94-.89-.09-1.29-.35-.94-1.33.9-2.54,1.96-5,3.34-7.63Z"/>
          <path class="cls-6" d="m215.27,270.66c.22,8.79.86,16.85,2.81,24.76.11.45.54,1.22-.16,1.41-.81.22-.82-.71-.98-1.21-1.35-4.32-1.89-8.79-2.33-13.26-.79-7.95-1-15.93-1.08-23.91,0-.61-.32-1.42.78-1.41,1.06.02.62.85.65,1.34.2,4.32.42,8.63.31,12.27Z"/>
          <path class="cls-17" d="m84.88,108.83c2.48,0,2.65,2.56,2.07,4.97-.17.7-.47.97-1.24.86-2.07-.29-2.12-.24-4.19-.44-.6-.06-.78-.3-.82-.89-.16-2.22,1.93-4.51,4.18-4.51Z"/>
          <path class="cls-6" d="m142.05,157.11c-2.37-.86-5.06-1.82-7.75-2.8-.6-.22-2.1-3.63-1.75-4.17.45-.67,1.12-.43,1.72-.08,1.35.79,2.64,1.67,3.75,2.78,1.44,1.44,2.79,2.96,4.03,4.28Z"/>
          <path class="cls-6" d="m91.49,195.34c1.09-2.04,1.91-3.6,2.75-5.15.13-.25.4-.66.53-.63,1.88.38,3.8.17,5.74.32-2.62,2.28-5.62,3.69-9.02,5.47Z"/>
          <path class="cls-15" d="m162.59,174.4c.24-1.36.63-2.68,1.4-3.84.29-.44.63-.99,1.27-.82.62.16.98.67,1.05,1.32.22,1.94-.69,3.6-1.37,5.31-.14.36-.47.37-.72.15-.68-.59-1.82-.85-1.63-2.12Z"/>
          <path class="cls-15" d="m150.83,176.06c1.65-1.32,3.27-2.57,4.32-4.49.49-.89,1.8-.7,2.78-.76.46-.03.3.39.29.65-.03.71-.09,1.43-.09,2.14,0,.46,0,.79-.62.81-2.33.09-4.48.94-6.69,1.64Z"/>
          <path class="cls-15" d="m162.3,174.92c-1.34-1.38-1.81-2.75-1.42-4.27.31-1.24,1.52-1.09,2.69-1.26-.87,1.72-1.34,3.42-1.27,5.52Z"/>
          <path class="cls-2" d="m136.64,247.12c-.09,2.29-2,4.06-4.27,3.96-2.16-.1-3.98-2.01-3.94-4.15.04-2.21,2.04-4.15,4.22-4.08,2.25.07,4.08,2.03,4,4.27Z"/>
          <path class="cls-2" d="m143.52,207.47c-.02,2.35-1.79,4.1-4.12,4.07-2.18-.03-3.96-1.84-3.99-4.05-.03-2.27,1.84-4.19,4.07-4.18,2.29,0,4.05,1.83,4.04,4.17Z"/>
          <path class="cls-2" d="m129.55,296.69c-2.32-.03-4.09-1.87-4-4.16.09-2.24,1.83-3.9,4.1-3.89,2.35,0,4.11,1.77,4.08,4.09-.03,2.32-1.8,4-4.18,3.97Z"/>
          <path class="cls-2" d="m220.03,154.55c.25-.47.61-.22.94-.14,5.32,1.23,10.53,2.81,15.59,4.86.44.18.86.41,1.28.64.47.26,1.07.5.87,1.18-.21.68-.85.53-1.37.47-1.62-.19-3.16-.74-4.65-1.35-4.04-1.66-8.06-3.39-12.07-5.1-.23-.1-.63-.11-.58-.54Z"/>
          <path class="cls-2" d="m166.72,124.59c-2.6,0-4.73-.3-6.8-.96-1.63-.52-1.87-1.16-.73-2.34,1.48-1.54,1.96-3.17,1.05-5.2-.68-1.52-1.21-3.12-1.79-4.68-.24-.64-.8-1.3-.12-1.98.56-.57,1.23-.29,1.86-.14,3.09.71,6.18,1.42,9.35,1.71,4.42.41,8.72-.09,12.9-1.59.68-.24,1.42-.67,2-.05.56.6.17,1.34-.11,2.01-2.63,6.18-6.56,10.97-13.42,12.67-1.52.38-3.05.59-4.19.55Z"/>
          <path class="cls-2" d="m174.66,76.01c5.04.11,10.04-.71,15.08-.4,4.61.29,7.46,3.27,7.48,8.25-3.12-4.57-7.51-4.21-11.94-3.74-2.09.22-4.17.42-6.28.25-3.23-.26-3.96-.95-4.34-4.35Z"/>
          <path class="cls-2" d="m212.97,104.03c1.9-.5,3.46-.39,4.48,1.23.7,1.12.43,2.15-.65,3.22-.15-1.11.08-2.25-.99-2.79-.61-.31-1.29-.24-1.92.02-.89.37-1.34.69-.46,1.74,1.69,2.02.76,4.43-1.74,4.9-.66.12-1.37.22-1.59-.68-.17-.71.18-1.17.83-1.36.52-.16,1.15-.19,1.11-.92-.03-.69-.6-1.07-1.15-1.25-1.3-.42-1.43-1.21-1.02-2.37.78-2.23,1.72-4.35,3.42-6.04,1.8-1.78,4.22-2.38,6.07-1.47,2.23,1.1,2.89,3.07,2.81,5.38-.08,2.36-1.1,4.38-2.35,6.31-.45.71-1.06,1.09-1.79.61-.69-.46-.45-1.15-.06-1.75.72-1.1,1.36-2.24,1.75-3.52.28-.94.39-1.89.23-2.84-.36-2.22-2.22-3.08-4.14-1.92-1.27.77-2.12,1.9-2.85,3.52Z"/>
          <path class="cls-2" d="m181.62,90.49c.45.05.91.1,1.58.17-.71-1.39-1.11-2.73-1.08-4.26-1.2.21-1.4,1.28-1.99,1.94-.69.78-1.23,2.25-2.37,1.82-1.15-.44-1.22-1.9-1.11-3.54.43.77.7,1.23.94,1.66.42-.02.58-.29.69-.56,1.2-2.99,3.49-3.82,6.51-3.43,2.73.35,5.51.33,8.08,1.5.65.29.67.4.37,1.03-.17.35.19.49.36.69.83.94,1.75,1.8,2.04,3.24-.86-.72-1.72-1.43-2.57-2.15-1.15-.98-2.41-1.79-3.89-2.14-.41-.1-1.05-.3-1.28.25-.24.56.29.98.72,1.05,2.01.36,2.22.91,2.08,2.24-.03.28-.4.78-.25,1,.28.41,1.92,0,1.59.2-.87.53-4.42.92-5.16.88-1.83-.1-3.71-.19-5.26-1.6Z"/>
          <path class="cls-2" d="m148.35,87.93c.43-1.56,1.7-2.34,2.73-3.56-.59.1-1.06.17-1.46.24-.24-.13-.23-.2-.09-.29,1.13-.75,2.41-1.04,3.74-1.09,1.74-.06,3.48-.12,5.21-.06,3.5.13,4.64.99,5.79,4.21.32.9-.87,2.67-1.79,2.67-.25,0-.5-.02-.58-.3-.08-.3-.01-.58.22-.82,1.62-1.67-.63-2.38-1-3.53-.32-.99-1.65-1.01-2.69-.91-.2.02-.48.2-.55.38-.13.32.13.55.38.73.84.58,1.83.46,2.73.56.44,1.06-1.25,1.72-.47,2.89.13.19-.55.36-.86.43-1.71.39-3.44.52-5.17.17-.65-.13-1.5-.17-.39-1.11.6-.5-.3-1.07-.45-1.62-.57-2.09-.85-2.17-2.74-.86-.87.6-1.72,1.24-2.57,1.86Z"/>
          <path class="cls-2" d="m166.93,81.94c.05.53.05,1.08.17,1.6.63,2.55.37,4.97-.84,7.31-1.25,2.44-2.32,5-3.76,7.33-1.23,1.99-.92,3.69.14,5.49.35.59.71,1.18.94,1.85-1.79-1.31-3.13-2.93-3.77-5.11-1.23,1.46-.27,2.65.58,3.87-1.63-.35-2.51-1.81-1.97-3.39.23-.66.6-1.33,1.07-1.85,3.48-3.78,4.67-8.67,6.33-13.3.7-1.95-.19-4.14-.45-6.21-.06-.47-.16-.93-.14-1.43.85,1.18.87,2.73,1.73,3.9l-.03-.06Z"/>
          <path class="cls-2" d="m147.29,81.63c.58-4.95,2.02-6.29,6.3-6,2.67.18,5.33.7,8,.97.87.09.79.52.67,1.07-.27,1.24-1.12,1.77-2.32,1.84-1.57.09-3.11-.15-4.63-.46-2.96-.59-5.74-.66-8.02,2.58Z"/>
          <path class="cls-2" d="m169.95,127.23c-1.52,2.59-3.44,3.49-5.96,3.19-2.04-.24-3.37-1.32-4.3-3.63,3.36,1.8,6.69,1.6,10.26.44Z"/>
          <path class="cls-16" d="m173.43,105.73c3.04-1.59,1.23-3.98,1-6.2,1.45,1.43,2.3,3.45,1.91,4.56-.44,1.25-1.58,1.48-2.91,1.64Z"/>
          <path class="cls-10" d="m157.56,138.16c-2.95-1-4.94-3.41-5.19-6.25.98,2.73,3.51,4.12,5.19,6.25Z"/>
          <path class="cls-13" d="m150.01,115.86c.15-.54-.32-1.2.39-1.32.64-.1.62.57.78,1,.3.84.71,1.64.7,2.56,0,.37-.06.75-.49.84-.46.09-.87-.09-.97-.56-.18-.87-.29-1.76-.41-2.52Z"/>
          <path class="cls-8" d="m191.4,116.8c-.34.96-.63,1.93-1.03,2.86-.15.35-.47.76-.98.49-.46-.24-.49-.68-.31-1.09.39-.87.82-1.73,1.25-2.58.17-.33.17-.94.79-.66.4.18.32.59.28.98Z"/>
          <path class="cls-12" d="m166.97,82c.12-.84-.59-1.57-.31-2.6,1.06,1.25,1.96,2.38,1.52,4.13-.96-.28-.79-1.15-1.24-1.59,0,0,.03.05.03.05Z"/>
          <path class="cls-16" d="m172.77,104.38c-.95.3-1.87.6-2.85.91.47-2,1.31-2.24,2.85-.91Z"/>
          <path class="cls-9" d="m242.12,35.1c2.49,2.8,2.65,6.16,2.31,9.6-.25,2.56-.65,5.11-1.57,7.52-.2.52-.41,1.4-1.08,1.25-.84-.2-.55-1.12-.42-1.69.73-3.08,1.62-6.12,1.76-9.33.11-2.52-.05-4.98-1-7.35Z"/>
          <path class="cls-2" d="m172.62,7.08c-4.91,1.39-8.25,4.72-11.54,8.16-.69.72-1.68,2.28-2.39,1.6-.88-.83.6-1.93,1.23-2.74,2.72-3.5,6.09-6.09,10.6-6.87.41-.07.83-.11,1.25-.14.29-.02.57,0,.86,0Z"/>
          <path class="cls-20" d="m171.86,33.38c-.06,2.65-2.07,5.15-4.72,5.87,1.4-2.32,3.65-3.62,4.72-5.87Z"/>
          <path class="cls-2" d="m97.34,197.64c.88.03,1.28-.05,1.47.36.17.37.04.74-.27.96-2.34,1.7-5.03,2.66-7.75,3.52-.29.09-.56-.09-.76-.36-.24-.33-.09-.65.14-.77,2.52-1.33,5.05-2.62,7.16-3.7Z"/>
          <path class="cls-9" d="m109.62,254.53c0-1.25,0-2.5,0-3.76,0-.28-.05-.65.37-.68.38-.03.49.31.5.6.18,3.96,1.23,7.78,1.93,11.65.07.37.23.9-.31,1.09-.63.22-.79-.36-1.02-.75-1.47-2.53-1.54-5.35-1.47-8.15Z"/>
          <path class="cls-9" d="m154.5,46.18c1.46,3.97-.76,11.06-3.95,12.28,2.33-3.87,2.92-7.95,3.95-12.28Z"/>
          <path class="cls-20" d="m180.97,58.86c1.58-3.81,3.53-7.49,3.73-12.11,1.57,3.12-.66,10.22-3.73,12.11Z"/>
          <path class="cls-20" d="m225.35,73.5c-.87,1.32-6.09,7.16-6.67,7.48-.2-2.25,3.62-6.53,6.67-7.48Z"/>
          <path class="cls-9" d="m206.1,65.86c-.77-2.22.67-6,2.94-7.49-1.12,2.4-1.49,5.09-2.94,7.49Z"/>
          <path class="cls-2" d="m129.86,177.85c-.97-.14-2.1-.27-3.21-.46-.31-.05-.81-.03-.78-.54.02-.43.44-.56.78-.61,1.72-.24,3.43-.49,5.15-.66,6.09-.61,11.59-2.72,16.58-6.25.33-.23.7-.93,1.16-.39.44.52-.26.82-.56,1.12-5.16,5.41-11.84,7.12-19.12,7.79Z"/>
          <path class="cls-2" d="m8.15,160.32c2.52,1.75,5.01,3.37,7.74,4.58,1.8.8,3.64,1.52,5.46,2.27,1.11.46,2.22.91,3.18,1.64.31.24.84.42.67.94-.19.57-.72.27-1.09.24-.53-.04-1.08-.14-1.58-.34-5.14-2.04-10.05-4.48-14.15-8.3-.2-.19-.49-.36-.24-1.03Z"/>
          <path class="cls-9" d="m212.74,225.34c.29.1.5.11.56.21,2.18,3.51,3.64,7.27,3.82,11.44.03.57.35,1.56-.52,1.63-.75.06-.81-.94-.94-1.54-.43-1.99-.68-4.02-1.17-5.99-.46-1.89-1.13-3.74-1.76-5.75Z"/>
          <path class="cls-9" d="m226.76,292.06c3.5-1.28,7.01-2.55,10.5-3.84.37-.13.74-.21.97.14.32.47-.08.77-.4,1.04-1.18,1.02-2.63,1.43-4.09,1.76-2.26.52-4.55.91-6.83,1.36-.05-.15-.11-.3-.17-.46Z"/>
          <path class="cls-18" d="m238.71,285.83c-2.25,1.69-4.5,1.95-6.86,2.72,1.62-1.29,4.92-2.67,6.86-2.72Z"/>
          <path class="cls-11" d="m134.51,246.94c-.15,1.13-.71,1.93-1.91,1.96-1.2.03-1.94-.74-1.97-1.88-.03-1.14.71-1.94,1.88-1.98,1.19-.04,1.79.76,2,1.9Z"/>
          <path class="cls-11" d="m139.45,209.39c-1.22-.17-1.87-.87-1.83-2.03.04-1.17.78-1.92,1.95-1.86,1.14.06,1.87.81,1.81,2-.05,1.18-.81,1.77-1.93,1.89Z"/>
          <path class="cls-11" d="m129.59,294.62c-1.2-.18-1.91-.89-1.85-2.06.06-1.08.79-1.83,1.88-1.82,1.15.02,1.93.73,1.91,1.95-.02,1.21-.79,1.81-1.94,1.92Z"/>
          <path class="cls-15" d="m169.16,122.22c-.36.03-1.25.16-2.14.18-.57.01-1.38.43-1.67-.08-.36-.61.16-1.38.47-1.99,1.51-2.91,7.8-4.03,10.28-1.9.66.57.18.72-.2,1.02-1.29,1.03-4,2.21-6.73,2.76Z"/>
          <path class="cls-6" d="m161.06,111.68c5.63,1.31,11.1,2.1,16.72,1.16-4.68,3.46-15.26,2.89-16.72-1.16Z"/>
          <path class="cls-4" d="m33.19,160.18c1.05-2.88,2.02-5.74,3.03-8.53,2.09.66,3.47,1.13,4.38,1.44-.83,2.78-1.69,5.76-2.69,8.96-.52,1.3-1.99,1.94-3.3,1.43-1.3-.52-1.94-1.99-1.42-3.3h0Zm5.5-14.89c3.79-8.92,8.94-16.6,19.69-21.05,4.3-1.78,4.37-1.47,9.09-2.07l-4.32,2.05c-12.52,6.08-17.08,12.98-20.42,22.29l-4.03-1.22Z"/>
          <path class="cls-5" d="m153.6,89.34c-.18-.03-.34-.06-.47-.1-1.78-.53-1.5-.67-2.62-2.88-.72.51-1.44,1.04-2.15,1.56.43-1.56,1.7-2.34,2.73-3.56-.59.1-1.06.17-1.46.24-.24-.13-.23-.2-.09-.29,1.13-.75,2.41-1.04,3.74-1.09,1.74-.06,3.48-.12,5.21-.06,3.5.13,4.64.99,5.79,4.21.32.9-.87,2.67-1.79,2.67-.25,0-.5-.02-.58-.3-.06-.2-.04-.39.04-.56-.32.02-.92.07-1.68.12-.19.07-.44.13-.59.17-1.71.39-3.44.52-5.17.17-.37-.07-.8-.12-.91-.31h0Zm6.34-9.85c-1.57.09-3.11-.15-4.63-.46-2.96-.59-5.74-.66-8.02,2.58.12-1.08.29-1.98.52-2.74.82-2.72,2.43-3.49,5.78-3.27,2.67.18,5.33.7,8,.97.37.04.57.14.67.29.12.19.07.47,0,.78-.27,1.24-1.12,1.77-2.32,1.84h0Zm5.41-2.83c-1.13-4.39-1.71-9.81-.67-13.47-5.04.15-10.12.75-15.22,1.66-.96.17-1.56.72-1.71,1.8-.27,1.9-.76,3.77-.97,5.67-.26,2.31-.48,4.62-.73,6.92-.46,4.37-.97,8.72-1.87,13.03-.74,3.54-1.48,7.09-.93,10.71,1.45,9.63,3.86,19.02,7.26,28.15.77,2.06,1.51,4.19,3.12,5.82,1.44,1.45,3.33,2.64,5.45,3.5-.16-1.59-.16-3.8.36-6.66.42-2.31,1.35-3.54,2.26-4.2-.64-.45-1.17-1.09-1.62-1.95-1.87-1.01-2.94-2.4-2.94-3.45,0-.63.63-1.21,1.36-1.82.05-.31.28-.66.7-1.09.78-.81,1.28-1.64,1.45-2.54-.02-.61-.07-1.33-.18-2.1-.06-.18-.13-.37-.22-.56-.68-1.52-1.21-3.12-1.79-4.68-.11-.3-.29-.6-.38-.9-1.73-2.87-.2-3.61.96-3.61,1.22,0,3.92,1.08,7.44,1.35,2.81.22,7.1-3.64,8.7-5.19,0-.2-.04-.41-.07-.61-2.19.04-8.93.12-12.41-.56-.33-.06-.62-.15-.87-.24.14.67.44,1.34.84,2.03.35.59.71,1.18.94,1.85-1.79-1.31-3.13-2.93-3.77-5.11-1.23,1.46-.27,2.65.58,3.87-1.63-.35-2.51-1.81-1.97-3.39.23-.66.6-1.33,1.07-1.85,3.48-3.78,4.67-8.67,6.33-13.3.7-1.95-.19-4.14-.45-6.21-.06-.47-.16-.93-.14-1.43.78,1.08.86,2.46,1.52,3.58-.08-.64-.21-1.26-.42-1.83-.35-.95-.68-2.03-.98-3.17h0Zm-14.18,38.87c.3.84.71,1.64.7,2.56,0,.37-.06.75-.49.84-.46.09-.87-.09-.97-.56-.18-.87-.29-1.76-.41-2.52.15-.54-.32-1.2.39-1.32.64-.1.62.57.78,1h0Zm18.74-10.26c.47-2,1.31-2.24,2.85-.91-.95.3-1.87.6-2.85.91h0Zm-17.54,26.62c.98,2.73,3.51,4.12,5.19,6.25-2.95-1-4.94-3.41-5.19-6.25Z"/>
          <path class="cls-19" d="m191.29,224.39c5.37-2.37,2.31,2.04.33,2.67-.48.15-.96.31-1.45.46-.23.79-.33,1.78-.04,3.03.44,1.96,1.06,3.12,1.6,3.8.28-.09.55-.18.79-.26,5.05-1.58,4.08.9,2.01,1.65-.62.23-1.34.48-2.11.73-.42,1.44-.84,3.85.42,5.29.77.88,1.41,1.47,1.89,1.86,1.11-.31,2.22-.66,3.32-.99.35,1.91-.11,2.44-2.1,2.68.31,1.33,1.34,3.6,4.73,4.16,4.87.81,16.23-5.68,16.23-5.68l3.6-6.58c-1.17-6.07-3.18-11.81-6.49-17.11-3.08-4.94-5.37-10.29-7.47-15.72-.95-2.48-1.22-4.95-.76-7.58.24-1.41.75-2.85.37-4.44-3.99,1.24-6.61,3.63-7.35,7.71-.66,3.69-.48,7.41,0,11.12.11.89.58,1.11,1.38,1.25,1.92.33,3.77.87,5.19,2.38-.47.46-.79.18-1.12.1-3.46-.85-6.93-.72-10.32.28-1.54.46-3.08.94-4.61,1.44-.85,3.6.88,7.02,1.89,7.69.03.02.05.04.08.06h0Zm23.2,6.71c-.46-1.89-1.13-3.74-1.76-5.75.29.1.5.11.56.21,2.18,3.51,3.64,7.27,3.82,11.44.03.57.35,1.56-.52,1.63-.75.06-.81-.94-.94-1.54-.43-1.99-.68-4.02-1.17-5.99Z"/>
          <path class="cls-5" d="m203.52,203.64c-.9-3.47-.22-7.12,1.35-10.81-3.27,1.34-5.41,3.63-6.06,7.24-.66,3.69-.48,7.41,0,11.12.11.89.58,1.11,1.38,1.25,1.66.29,3.27.73,4.59,1.82-.16-2.85-.52-7.77-1.25-10.63Z"/>
          <path class="cls-11" d="m211.59,293.95c-2.08-1-10.02,11.02-9.93,10.6,1.71-8.44,8-12.94,8.38-21.52.27-6.11-2.29-14.92-.91-25.1-.07-.81.06-1.76-1.27-1.7-2.21.1-4.36.84-6.6.69-.36-.03-.5.31-.63.57-.94,1.9-2.6,2.17-4.44,1.86-1.83-.31-3.67-.64-5.45-1.15-1.92-.54-3.36-1.07-4.42-1.74.58,4.21,3.43,5.7,8.27,7.08,7.57,2.16,7.57,3.51,7.57,3.51l-.81,23.53-13.52,23.53-.35,1.51-.14.6c2.95-.25,29.61-3.92,30.09-5.92.11-.46-3.54-15.25-5.85-16.35Z"/>
          <path class="cls-11" d="m275.55,256.93c-8.07,3.44-18.64,4.14-29.51,4,.46,4.08.75,8.17.53,12.25-.08,1.49.48,1.97,1.79,2.24,2.6.54,2.98.34,5.5-.3,4.78-1.21,9.17-3.09,13.2-5.56,4.19-2.56,8-5.76,11.48-9.49,2.51-2.7,4.49-5.65,5.61-8.99-2.33,2.51-5.26,4.41-8.61,5.84Z"/>
          <path class="cls-11" d="m223.45,191.54c-1.11,3.97-.87,8.04-.82,12.08.27-.9.43-1.83.65-2.74,1.31-5.59,3.45-10.8,6.27-15.69l-6.1,6.35Z"/>
          <path class="cls-11" d="m221.2,198.3c.67-1.73.72-3.41.91-5.06.01-.12.03-.23.04-.34l-1.39,1.45c.14,1.28.29,2.58.44,3.95Z"/>
          <path class="cls-11" d="m219.31,208.28c-.23-4.22-.12-8.45.44-12.68-.95,1.68-4.28,7.5-7.91,13.21,1.05,2.1,2.07,3.96,3.34,6.4.45.87.89,1.78,1.65,2.47,2.34-3.32,2.69-5.35,2.48-9.4Z"/>
          <path class="cls-11" d="m239.64,58.79c-1.35.05-2.78.12-4.55-.43,2.41-1.13,4.53-1.55,6.75-1.52.68,0,1.19.02,1.61-.75,5.25-9.66,4.86-20.68-3.72-28.23-2.12-1.87-4.35-3.28-6.69-4.2,5.77,17.1,3.85,28.35-1.59,30.48-1.93.76-3.76,1.25-5.36,1.57.33,1.19.7,2.35,1.1,3.51,1.79,5.17,3.74,10.27,7.48,14.42,2.51,2.78,5.46,4.09,9.33,2.22,1.06,6.72-.84,11.8-7.05,14.91.71.02,1.34-.04,1.94-.21,10.72-3.02,15.9-18.48,9.15-27.35-2.08-2.73-4.68-4.56-8.38-4.42h0Zm3.22-6.56c-.2.52-.41,1.4-1.08,1.25-.84-.2-.55-1.12-.42-1.69.73-3.08,1.62-6.12,1.76-9.33.11-2.52-.05-4.98-1-7.35,2.49,2.8,2.65,6.16,2.31,9.6-.25,2.56-.65,5.11-1.57,7.52Z"/>
          <path class="cls-11" d="m212.09,55.81c3.64,3.44,4.54,5.93,2.86,10.21-1.48,3.78-4.06,7.46-5.85,9.77.57.48,1.13.98,1.69,1.49,2.85,2.59,5.4,5.47,8,8.31-1.89-4.07-4.85-7.34-7.8-10.65,2.27,1.23,4.29,2.73,5.83,4.73,1.55,2,2.94,4.12,4.49,6.32,1.89-4.21,3.67-8.26,5.53-12.27.35-.75.12-1.2-.25-1.77-4.16-6.39-9.05-11.77-14.5-16.14h0Zm6.59,25.17c-.2-2.25,3.62-6.53,6.67-7.48-.87,1.32-6.09,7.16-6.67,7.48Z"/>
          <path class="cls-6" d="m102.17,147.7c0-8.36-1.6-16.12-14.72-28.94-2.2-.31-4.41-.52-6.64-.63-4-.19-8.06-.06-12.17.43-7.58.9-15.05,2.3-22.04,5.56-3.37,1.57-6.32,3.62-8.22,6.97-2.49,4.38-3.72,7.35-5.81,11.93-.44.96-.43,1.36.69,1.77,11.04,4,18.91,6.49,26.6,8.06,9.96,2.03,19.64,2.52,35.57,2.75,1.86-.02,3.74-.05,5.63-.09.59-1.22,1.12-3.52,1.12-7.82h0Zm-39.04-23.47c-12.52,6.08-17.08,12.98-20.42,22.29l-4.03-1.22c3.79-8.92,8.94-16.6,19.69-21.05,4.3-1.78,4.37-1.47,9.09-2.07l-4.32,2.05Z"/>
          <path class="cls-6" d="m80.53,157.24c-7.25-.35-14.45-.96-21.56-2.01-9.48-1.41-18.81-3.63-27.89-7.14-.9-.35-1.16.04-1.42.73-.98,2.64-2,5.26-2.94,7.91-1.14,3.2-.97,3.63,1.97,5.51.55.35,1.13.67,1.72.97,4.14,2.12,8.6,3.33,13.1,4.3,3.72.81,7.45,1.51,11.2,2.11,14.55,2.36,29.25,3.27,44.04,3.32.04,0,.09,0,.13,0,.16-1.08.45-2.97.89-6.05.61-4.26.15-7.77-.11-9.25-6.36.07-12.73-.11-19.1-.41h0Zm-39.93-4.14c-.83,2.78-1.69,5.76-2.69,8.96-.52,1.3-1.99,1.94-3.3,1.43-1.3-.52-1.94-1.99-1.42-3.3,1.05-2.88,2.02-5.74,3.03-8.53,2.09.66,3.47,1.13,4.38,1.44Z"/>
          <path class="cls-6" d="m8.85,153.21c.61,7.25,13.25,14.94,44.98,20.46,1.55.27,3.16.54,4.8.8,40.59,6.41,81.19,3.03,92.7-9.24-.24-.23-.48-.45-.73-.66-4.77-3.94-10.48-5.51-16.48-7.66.69,3.26,1.18,6.21,1.97,9.08.56,2.03-.13,3.37-1.67,4.5-1.83,1.34-3.94,2.01-6.11,2.53-8.34,2.01-16.86,2.37-25.37,2.49-16.11.22-32.14-.84-48.07-3.26-.24-.04-.48-.07-.72-.11-7.41-1.16-15.76-2.95-22.74-5.62-2.7-1.03-5.31-2.22-7.37-4.34-1.26-1.3-1.79-2.69-1.05-4.55,1.23-3.08,2.25-6.25,3.42-9.54-5.14.81-8.93,1.77-13.69,3.49-1.33.48-2.63,1-3.87,1.63Z"/>
          <path class="cls-11" d="m125.76,194.74c.74-1.57,1.41-3.17,2.07-4.78,1.2-2.9,2.81-5.57,4.7-8.42-7.64,1.37-15.04,1.81-22.23,2.25,1.32,13.33,3.44,26.5.18,39.75,2.5-3.86,4.13-8.17,6.47-12.42.42.91.16,1.41.05,1.92-.94,4.38-2.77,8.4-5,12.26-.33.57-.64,1.11-.77,1.79-1.05,5.47-2.09,10.95-3.27,16.4-1.44,6.62-.96,13.09,1.06,19.5,1.37,4.36,2.6,8.74,2.48,13.38-.09,3.35-1.07,6.42-2.9,9.24.87-3.18,1.58-6.36,1.23-9.7-.34-3.25-.93-6.43-2.28-9.87-1.34,8.48-4.98,23.83-8.53,31.07,2.73-.3,4.21-.18,7.83-.61,3.89-15.18,6.06-28.98,5.62-32.72-.44-3.74-.04-.35-.06-.53-.06.08-.15.14-.27.18-.63.22-.79-.36-1.02-.75-1.47-2.53-1.54-5.35-1.47-8.15,0-1.25,0-2.5,0-3.76,0-.28-.05-.65.37-.68.38-.03.49.31.5.6.15,3.29.9,6.48,1.55,9.68-1.17-9.82-2.77-25.29,2.03-32.02,5.41-7.57,6.22-25.15,6.22-25.15,0,0,1.12.48,8.12.46.12-.87.24-1.74.37-2.61.15-1.08-.05-1.51-1.22-1.51-1.13,0-2.26-.22-3.39-.37-.54-.07-1.1-.2-1.22-.86-.11-.6.09-1.1.72-1.26,1.22-.31,1.64-1.35,2.09-2.31Z"/>
          <path class="cls-11" d="m160.79,183.97c-3.37,4.81-7.21,9.14-12.3,12.22-4.89,2.96-10.29,3.77-15.89,3.75-.87,0-1.56-.09-1.72,1.18-.1.84-.21,1.68-.32,2.52,1.7-.03,3.67-.08,5.95-.17,14.33-.54,25.15-14.33,25.15-14.33l5.14,6.76c4.99,6.56,16.34,9.05,28.13,13.64-.04-.62-.13-1.38-.25-2.32-.09-.74-.32-1.16-1.05-1.42-5.29-1.93-8.8-4.28-14.21-5.88-3.31-.98-6.08-2.77-8.51-5.18-3.65-3.61-6.37-7.88-8.93-12.48-.46.66-.82,1.19-1.19,1.72Z"/>
          <path class="cls-11" d="m134.31,154.31c2.68.98,5.37,1.95,7.75,2.8-1.23-1.32-2.59-2.84-4.03-4.28-1.1-1.11-2.39-1.99-3.75-2.78-.59-.34-1.27-.59-1.72.08-.36.54,1.15,3.96,1.75,4.17Z"/>
          <path class="cls-5" d="m182.8,155.67c5.69-8.83,10.03-19.53,13.27-29.22-6.19,9.24-13.43,17.58-22.13,24.71-1.83,1.5-3.85,1.86-6.07,1.45-3.18-.58-6.04-1.92-8.66-3.78-.39-.28-.68-.8-1.31-.69-.12,4.64,2.55,8.19,4.5,11.99.54,1.06,1.93,1.2,3.05,1.25,1.08.05.76-1.17,1.16-1.76.59-.87.61-2.11,1.71-2.76.41,1.68-.31,3.12-.54,4.72,3.58-.22,6.91-.64,9.86-2.69,1.66-1.15,3.39-2.21,5.15-3.22Z"/>
          <path class="cls-5" d="m192.91,70.76c4.18,2.46,7.78,6.48,10.36,9.93.37.49.71.97,1.04,1.44.05-.37.1-.74.16-1.1.2-1.29.42-2.59.69-3.88.22-1.08.09-1.68-.85-2.35-3.29-2.32-6.71-4.4-10.38-6.07-9.52-4.34-19.3-5.81-29.22-5.52-.07.25-.14.51-.19.77,10.7-.74,20.95,2.4,28.41,6.78Z"/>
          <path class="cls-5" d="m217.45,105.26c.7,1.12.43,2.15-.65,3.22-.15-1.11.08-2.25-.99-2.79-.61-.31-1.29-.24-1.92.02-.89.37-1.34.69-.46,1.74,1.39,1.66,1.01,3.6-.58,4.49,1.64-.11,3.38-.95,4.76-1.99-.06-.36.12-.77.37-1.14.72-1.1,1.36-2.24,1.75-3.52.28-.94.39-1.89.23-2.84-.36-2.22-2.22-3.08-4.14-1.92-1.27.77-2.12,1.9-2.85,3.52,1.9-.5,3.46-.39,4.48,1.23Z"/>
        </g>
        <path class="cls-11" d="m242.66,259.06c-1.87,1.4-8.16,2.34-16.57,2.1.67,11.35.02,22.77-2.37,34.32,4.93-1.15,9.52-2.24,14.11-3.3.74-.17,1.06-.63,1.31-1.3.89-2.36,1.74-4.74,2.1-7.23,1.19-8.17,1.49-16.37,1.41-24.6h0Zm-10.81,29.48c1.62-1.29,4.92-2.67,6.86-2.72-2.25,1.69-4.5,1.95-6.86,2.72h0Zm-5.09,3.52c3.5-1.28,7.01-2.55,10.5-3.84.37-.13.74-.21.97.14.32.47-.08.77-.4,1.04-1.18,1.02-2.63,1.43-4.09,1.76-2.26.52-4.55.91-6.83,1.36-.05-.15-.11-.3-.17-.46Z"/>
      </g>
      <g>
        <path class="cls-7" d="m159.13,178.11c-11.63,3.32-20.25,11.21-29.69,18.15,1.27.32,2.24-.09,3.21-.24,6.33-.99,12.53-2.28,17.02-7.5,1.17-1.36,2.58-2.51,3.8-3.84,1.92-2.1,4-4.08,5.66-6.56Z"/>
        <path class="cls-7" d="m166.66,180.57c2.09,5.66,5.8,9.91,11.35,12.31,3.92,1.69,7.96,3.09,11.75,5.31-2.28-2.88-4.47-5.84-6.87-8.62-4.1-4.73-8.55-9.07-14.36-11.71-.49-.22-1.09-.84-1.6-.32-.48.5-.69,1.26-.6,2,.04.35.2.69.33,1.02Z"/>
        <path class="cls-4" d="m27.71,165.22c-2.91-1.99-10.45-6.06-9.95-10.52,5.02,4.53,4.73,4.5,11.28,7.87.81.56,1.69,1.39,1.13,2.2-.56.81-1.66,1.01-2.47.46Z"/>
      </g>
    </g>
    <path class="cls-4" d="m135.85,210.92c5.6-1.7,5.15-1.34,9.4-4.39l-.33,1.41c-1.76,4.1-5.72,3.57-9.06,2.99Z"/>
    <path class="cls-4" d="m128.82,250.94c5.6-1.7,5.15-1.34,9.4-4.39l-.33,1.41c-1.76,4.1-5.72,3.57-9.06,2.99Z"/>
    <path class="cls-4" d="m126.11,296.64c5.6-1.7,5.15-1.34,9.4-4.39l-.33,1.41c-1.76,4.1-5.72,3.57-9.06,2.99Z"/>
  </g>
</svg>